<svg width="60" height="60" viewBox="0 0 60 60" fill="none" xmlns="http://www.w3.org/2000/svg">
<circle cx="30" cy="30" r="28.5" stroke="#AB9876" stroke-width="3"/>
<path d="M37.8722 33.576L42.0406 37.7444C42.6011 38.3049 42.6011 39.2137 42.0406 39.7742C39.0102 42.8046 34.2126 43.1456 30.784 40.5742L28.3042 38.7143C25.5597 36.656 23.1218 34.218 21.0634 31.4736L19.2036 28.9937C16.6322 25.5652 16.9731 20.7676 20.0036 17.7371C20.5641 17.1766 21.4729 17.1766 22.0334 17.7371L26.2017 21.9055C26.8164 22.5202 26.8164 23.5168 26.2017 24.1316L24.5944 25.7389C24.3389 25.9944 24.2756 26.3846 24.4371 26.7077C26.305 30.4435 29.3342 33.4727 33.07 35.3406C33.3931 35.5021 33.7834 35.4388 34.0388 35.1834L35.6462 33.576C36.2609 32.9613 37.2575 32.9613 37.8722 33.576Z" stroke="#AB9876" stroke-width="3.14815"/>
</svg>
