<svg width="100" height="100" viewBox="0 0 100 100" fill="none" xmlns="http://www.w3.org/2000/svg">
<circle cx="72.9167" cy="72.9167" r="10.4167" stroke="#AB9876" stroke-width="2"/>
<path d="M87.5 87.5L81.25 81.25" stroke="#AB9876" stroke-width="2" stroke-linecap="round"/>
<path fill-rule="evenodd" clip-rule="evenodd" d="M16.6665 16.3334C16.6665 12.5621 16.6665 10.6765 17.8381 9.50495C19.0096 8.33337 20.8953 8.33337 24.6665 8.33337H75.3332C79.1044 8.33337 80.99 8.33337 82.1616 9.50495C83.3332 10.6765 83.3332 12.5621 83.3332 16.3334V65.2776C80.9823 62.0773 77.192 60 72.9165 60C65.7828 60 59.9998 65.783 59.9998 72.9167C59.9998 80.0504 65.7828 85.8334 72.9165 85.8334C75.5796 85.8334 78.0544 85.0274 80.1105 83.6462L83.291 86.8268C83.2055 88.6049 82.9465 89.7102 82.1616 90.4951C80.99 91.6667 79.1044 91.6667 75.3332 91.6667H24.6665C20.8953 91.6667 19.0096 91.6667 17.8381 90.4951C16.6665 89.3236 16.6665 87.4379 16.6665 83.6667V16.3334ZM72.9165 65C68.5443 65 64.9998 68.5445 64.9998 72.9167C64.9998 77.289 68.5443 80.8334 72.9165 80.8334C77.2888 80.8334 80.8332 77.289 80.8332 72.9167C80.8332 68.5445 77.2888 65 72.9165 65ZM33.3332 24C32.7809 24 32.3332 24.4478 32.3332 25C32.3332 25.5523 32.7809 26 33.3332 26H49.9998C50.5521 26 50.9998 25.5523 50.9998 25C50.9998 24.4478 50.5521 24 49.9998 24H33.3332ZM33.3332 40.6667C32.7809 40.6667 32.3332 41.1144 32.3332 41.6667C32.3332 42.219 32.7809 42.6667 33.3332 42.6667H58.3332C58.8855 42.6667 59.3332 42.219 59.3332 41.6667C59.3332 41.1144 58.8855 40.6667 58.3332 40.6667H33.3332ZM33.3332 57.3334C32.7809 57.3334 32.3332 57.7811 32.3332 58.3334C32.3332 58.8857 32.7809 59.3334 33.3332 59.3334H45.8332C46.3855 59.3334 46.8332 58.8857 46.8332 58.3334C46.8332 57.7811 46.3855 57.3334 45.8332 57.3334H33.3332Z" fill="#AB9876"/>
<path d="M82.1616 9.50495L82.5152 9.15139L82.5152 9.15139L82.1616 9.50495ZM83.3332 65.2776L82.9302 65.5736L83.8332 66.8028V65.2776H83.3332ZM80.1105 83.6462L80.464 83.2926L80.1731 83.0017L79.8316 83.2312L80.1105 83.6462ZM83.291 86.8268L83.7905 86.8508L83.8011 86.6297L83.6446 86.4732L83.291 86.8268ZM17.8381 90.4951L18.1916 90.1416L18.1916 90.1416L17.8381 90.4951ZM33.3332 40.6667L33.3332 40.1667H33.3332V40.6667ZM33.3332 42.6667L33.3332 42.1667H33.3332V42.6667ZM58.3332 42.6667L58.3332 43.1667H58.3332V42.6667ZM58.3332 40.6667L58.3332 41.1667H58.3332V40.6667ZM17.4845 9.15139C16.7904 9.84556 16.4713 10.733 16.3174 11.8777C16.1654 13.008 16.1665 14.4619 16.1665 16.3334H17.1665C17.1665 14.4336 17.1676 13.0591 17.3085 12.0109C17.4475 10.9771 17.7142 10.3359 18.1916 9.8585L17.4845 9.15139ZM24.6665 7.83337C22.795 7.83337 21.3411 7.83231 20.2108 7.98428C19.0661 8.13818 18.1787 8.45722 17.4845 9.15139L18.1916 9.8585C18.669 9.3811 19.3102 9.11435 20.344 8.97536C21.3922 8.83444 22.7668 8.83337 24.6665 8.83337V7.83337ZM75.3332 7.83337H24.6665V8.83337H75.3332V7.83337ZM82.5152 9.15139C81.821 8.45722 80.9336 8.13818 79.7889 7.98428C78.6586 7.83231 77.2047 7.83337 75.3332 7.83337V8.83337C77.2329 8.83337 78.6074 8.83444 79.6556 8.97536C80.6894 9.11435 81.3306 9.3811 81.8081 9.8585L82.5152 9.15139ZM83.8332 16.3334C83.8332 14.4619 83.8342 13.008 83.6823 11.8777C83.5284 10.733 83.2093 9.84556 82.5152 9.15139L81.8081 9.8585C82.2855 10.3359 82.5522 10.9771 82.6912 12.0109C82.8321 13.0591 82.8332 14.4336 82.8332 16.3334H83.8332ZM83.8332 65.2776V16.3334H82.8332V65.2776H83.8332ZM72.9165 60.5C77.0261 60.5 80.6694 62.496 82.9302 65.5736L83.7361 64.9816C81.2951 61.6586 77.3578 59.5 72.9165 59.5V60.5ZM60.4998 72.9167C60.4998 66.0592 66.059 60.5 72.9165 60.5V59.5C65.5067 59.5 59.4998 65.5069 59.4998 72.9167H60.4998ZM72.9165 85.3334C66.059 85.3334 60.4998 79.7742 60.4998 72.9167H59.4998C59.4998 80.3265 65.5067 86.3334 72.9165 86.3334V85.3334ZM79.8316 83.2312C77.8555 84.5588 75.4772 85.3334 72.9165 85.3334V86.3334C75.682 86.3334 78.2534 85.4961 80.3893 84.0612L79.8316 83.2312ZM83.6446 86.4732L80.464 83.2926L79.7569 83.9997L82.9375 87.1803L83.6446 86.4732ZM82.5152 90.8487C83.4436 89.9202 83.7044 88.6414 83.7905 86.8508L82.7916 86.8028C82.7067 88.5683 82.4494 89.5003 81.8081 90.1416L82.5152 90.8487ZM75.3332 92.1667C77.2047 92.1667 78.6586 92.1678 79.7889 92.0158C80.9336 91.8619 81.821 91.5429 82.5152 90.8487L81.8081 90.1416C81.3306 90.619 80.6894 90.8857 79.6556 91.0247C78.6074 91.1656 77.2329 91.1667 75.3332 91.1667V92.1667ZM24.6665 92.1667H75.3332V91.1667H24.6665V92.1667ZM17.4845 90.8487C18.1787 91.5429 19.0661 91.8619 20.2108 92.0158C21.3411 92.1678 22.795 92.1667 24.6665 92.1667V91.1667C22.7668 91.1667 21.3922 91.1656 20.344 91.0247C19.3102 90.8857 18.669 90.619 18.1916 90.1416L17.4845 90.8487ZM16.1665 83.6667C16.1665 85.5382 16.1654 86.9921 16.3174 88.1224C16.4713 89.2671 16.7904 90.1545 17.4845 90.8487L18.1916 90.1416C17.7142 89.6642 17.4475 89.023 17.3085 87.9892C17.1676 86.941 17.1665 85.5665 17.1665 83.6667H16.1665ZM16.1665 16.3334V83.6667H17.1665V16.3334H16.1665ZM65.4998 72.9167C65.4998 68.8206 68.8204 65.5 72.9165 65.5V64.5C68.2681 64.5 64.4998 68.2683 64.4998 72.9167H65.4998ZM72.9165 80.3334C68.8204 80.3334 65.4998 77.0128 65.4998 72.9167H64.4998C64.4998 77.5651 68.2681 81.3334 72.9165 81.3334V80.3334ZM80.3332 72.9167C80.3332 77.0128 77.0126 80.3334 72.9165 80.3334V81.3334C77.5649 81.3334 81.3332 77.5651 81.3332 72.9167H80.3332ZM72.9165 65.5C77.0126 65.5 80.3332 68.8206 80.3332 72.9167H81.3332C81.3332 68.2683 77.5649 64.5 72.9165 64.5V65.5ZM32.8332 25C32.8332 24.7239 33.057 24.5 33.3332 24.5V23.5C32.5047 23.5 31.8332 24.1716 31.8332 25H32.8332ZM33.3332 25.5C33.057 25.5 32.8332 25.2762 32.8332 25H31.8332C31.8332 25.8285 32.5047 26.5 33.3332 26.5V25.5ZM49.9998 25.5H33.3332V26.5H49.9998V25.5ZM50.4998 25C50.4998 25.2762 50.276 25.5 49.9998 25.5V26.5C50.8283 26.5 51.4998 25.8285 51.4998 25H50.4998ZM49.9998 24.5C50.276 24.5 50.4998 24.7239 50.4998 25H51.4998C51.4998 24.1716 50.8283 23.5 49.9998 23.5V24.5ZM33.3332 24.5H49.9998V23.5H33.3332V24.5ZM32.8332 41.6667C32.8332 41.3906 33.057 41.1667 33.3332 41.1667V40.1667C32.5047 40.1667 31.8332 40.8383 31.8332 41.6667H32.8332ZM33.3332 42.1667C33.057 42.1667 32.8332 41.9428 32.8332 41.6667H31.8332C31.8332 42.4951 32.5047 43.1667 33.3332 43.1667V42.1667ZM58.3332 42.1667L33.3332 42.1667L33.3332 43.1667L58.3332 43.1667L58.3332 42.1667ZM58.8332 41.6667C58.8332 41.9429 58.6093 42.1667 58.3332 42.1667V43.1667C59.1616 43.1667 59.8332 42.4951 59.8332 41.6667H58.8332ZM58.3332 41.1667C58.6093 41.1667 58.8332 41.3906 58.8332 41.6667H59.8332C59.8332 40.8383 59.1616 40.1667 58.3332 40.1667V41.1667ZM33.3332 41.1667L58.3332 41.1667L58.3332 40.1667L33.3332 40.1667L33.3332 41.1667ZM32.8332 58.3334C32.8332 58.0572 33.057 57.8334 33.3332 57.8334V56.8334C32.5047 56.8334 31.8332 57.5049 31.8332 58.3334H32.8332ZM33.3332 58.8334C33.057 58.8334 32.8332 58.6095 32.8332 58.3334H31.8332C31.8332 59.1618 32.5047 59.8334 33.3332 59.8334V58.8334ZM45.8332 58.8334H33.3332V59.8334H45.8332V58.8334ZM46.3332 58.3334C46.3332 58.6095 46.1093 58.8334 45.8332 58.8334V59.8334C46.6616 59.8334 47.3332 59.1618 47.3332 58.3334H46.3332ZM45.8332 57.8334C46.1093 57.8334 46.3332 58.0572 46.3332 58.3334H47.3332C47.3332 57.5049 46.6616 56.8334 45.8332 56.8334V57.8334ZM33.3332 57.8334H45.8332V56.8334H33.3332V57.8334Z" fill="black"/>
</svg>
