<svg width="82" height="82" viewBox="0 0 82 82" fill="none" xmlns="http://www.w3.org/2000/svg">
<circle cx="41" cy="41" r="40" fill="#AB9876" stroke="black" stroke-width="0.5"/>
<path fill-rule="evenodd" clip-rule="evenodd" d="M14.4169 41.7155C12.9999 41.9455 11.6889 42.6087 10.6641 43.614C9.63929 44.6193 8.95102 45.9173 8.69388 47.3296C8.43673 48.742 8.62334 50.1993 9.22803 51.5013C9.83273 52.8032 10.8258 53.886 12.0709 54.6006C13.3159 55.3153 14.7517 55.6268 16.1809 55.4923C17.6102 55.3579 18.9627 54.784 20.0525 53.8497C21.1424 52.9154 21.9162 51.6664 22.2674 50.2745C22.6187 48.8826 22.5302 47.4161 22.0142 46.0765C21.4421 44.587 20.3743 43.3401 18.9905 42.5458C17.6067 41.7515 15.9915 41.4583 14.4169 41.7155ZM16.9813 51.9902C16.2675 52.2914 15.4773 52.3612 14.7217 52.1901C13.9661 52.0189 13.2832 51.6153 12.7689 51.0359C12.2545 50.4566 11.9347 49.7306 11.8543 48.9601C11.7738 48.1896 11.9368 47.4132 12.3204 46.7401C12.704 46.067 13.2889 45.5311 13.9928 45.2075C14.6967 44.884 15.4843 44.7892 16.2449 44.9364C17.0055 45.0836 17.7009 45.4654 18.2332 46.0283C18.7656 46.5911 19.1082 47.3065 19.213 48.0741C19.3234 48.8815 19.1646 49.7027 18.7611 50.4106C18.3577 51.1185 17.7321 51.6737 16.9813 51.9902ZM24.0424 39.3794C23.81 39.4433 23.5948 39.5582 23.4124 39.7157C23.23 39.8732 23.085 40.0694 22.988 40.29C22.891 40.5106 22.8444 40.7501 22.8515 40.991C22.8587 41.2319 22.9195 41.4681 23.0295 41.6826C23.3773 42.3796 24.2029 42.6958 24.9529 42.4916L29.3053 41.3064L24.9727 52.1144C24.9407 52.1942 24.9314 52.2813 24.9461 52.3661C24.9608 52.4508 24.9988 52.5298 25.0559 52.5942C25.113 52.6586 25.1868 52.7058 25.2692 52.7305C25.3516 52.7553 25.4392 52.7566 25.5223 52.7343L36.147 49.8412C36.8965 49.6372 37.4483 48.946 37.3947 48.1688C37.3808 47.9282 37.3135 47.6938 37.1976 47.4825C37.0817 47.2712 36.9201 47.0885 36.7247 46.9475C36.5293 46.8065 36.3049 46.7108 36.0679 46.6674C35.8309 46.624 35.5872 46.634 35.3545 46.6967L30.0514 48.1407L34.3807 37.3411C34.4131 37.2605 34.4224 37.1725 34.4075 37.0869C34.3927 37.0014 34.3543 36.9216 34.2967 36.8566C34.239 36.7917 34.1644 36.744 34.0812 36.7191C33.998 36.6942 33.9095 36.6929 33.8256 36.7155L24.0424 39.3794ZM66.5076 27.8551C66.1786 28.0345 65.9208 28.3208 65.7766 28.6667C65.6324 29.0126 65.6106 29.3973 65.7148 29.7573L67.1329 34.9655L56.8649 30.5477C56.7844 30.5131 56.6958 30.5021 56.6093 30.5157C56.5228 30.5293 56.4419 30.567 56.3759 30.6246C56.3099 30.6821 56.2615 30.7571 56.2362 30.841C56.211 30.9249 56.2099 31.0141 56.2331 31.0986L59.1614 41.8525C59.2541 42.2156 59.4679 42.5361 59.7675 42.7612C60.0672 42.9862 60.4346 43.1022 60.8092 43.0901C61.0513 43.0781 61.2876 43.012 61.5007 42.8965C61.7139 42.7811 61.8984 42.6193 62.0406 42.423C62.1828 42.2267 62.2792 42.001 62.3226 41.7625C62.366 41.5241 62.3553 41.2789 62.2913 41.0451L60.8608 35.7918L71.129 40.2097C71.2094 40.2442 71.298 40.2553 71.3845 40.2417C71.4709 40.2281 71.5518 40.1904 71.6178 40.1328C71.6838 40.0753 71.7322 40.0003 71.7574 39.9165C71.7827 39.8327 71.7838 39.7434 71.7606 39.659L68.8216 28.8659C68.7582 28.632 68.6431 28.4153 68.4848 28.2318C68.3265 28.0483 68.129 27.9027 67.907 27.8057C67.6849 27.7087 67.4439 27.6628 67.2017 27.6713C66.9595 27.6799 66.7223 27.7427 66.5076 27.8551ZM45.2943 36.6311C48.8639 35.6591 52.0448 36.8192 52.5042 38.5066C52.9637 40.194 50.8102 42.8067 47.2406 43.7786C43.671 44.7506 40.4901 43.5905 40.0307 41.9031C39.5712 40.2157 41.7247 37.6031 45.2943 36.6311ZM44.4426 33.5031C39.2757 34.91 35.9043 39.051 36.9121 42.7523C37.92 46.4535 42.9255 48.3136 48.0923 46.9067C53.2592 45.4998 56.6305 41.3588 55.6226 37.6575C54.6148 33.9562 49.6093 32.0962 44.4426 33.5031Z" stroke="black" stroke-width="0.5"/>
</svg>
