<svg width="86" height="64" viewBox="0 0 86 64" fill="none" xmlns="http://www.w3.org/2000/svg">
<path fill-rule="evenodd" clip-rule="evenodd" d="M1.33358 24.8334H84.6667C84.6638 13.7119 84.5618 8.05065 81.0057 4.49454C77.3445 0.833374 71.4519 0.833374 59.6668 0.833374H26.3335C14.5484 0.833374 8.65583 0.833374 4.99466 4.49454C1.43855 8.05065 1.33651 13.7119 1.33358 24.8334ZM84.6668 26.8334H1.3335V38.3334C1.3335 50.1185 1.3335 56.011 4.99466 59.6722C8.65582 63.3334 14.5484 63.3334 26.3334 63.3334H26.3335H59.6668H59.6669C71.452 63.3334 77.3445 63.3334 81.0057 59.6722C84.6668 56.011 84.6668 50.1185 84.6668 38.3334V26.8334ZM22.1668 45.6667C21.6145 45.6667 21.1668 46.1144 21.1668 46.6667C21.1668 47.219 21.6145 47.6667 22.1668 47.6667H22.2085C22.7608 47.6667 23.2085 47.219 23.2085 46.6667C23.2085 46.1144 22.7608 45.6667 22.2085 45.6667H22.1668Z" fill="#AB9876"/>
<path d="M1.33358 24.8334L0.833582 24.8332L0.833451 25.3334H1.33358V24.8334ZM84.6667 24.8334V25.3334H85.1669L85.1667 24.8332L84.6667 24.8334ZM81.0057 4.49454L80.6521 4.84809L80.6521 4.84809L81.0057 4.49454ZM4.99466 4.49454L5.34821 4.84809L5.34821 4.84809L4.99466 4.49454ZM84.6668 26.8334H85.1668V26.3334H84.6668V26.8334ZM1.3335 26.8334V26.3334H0.833496V26.8334H1.3335ZM4.99466 59.6722L5.34822 59.3187L5.34821 59.3187L4.99466 59.6722ZM81.0057 59.6722L80.6521 59.3187L80.6521 59.3187L81.0057 59.6722ZM1.33358 25.3334H84.6667V24.3334H1.33358V25.3334ZM80.6521 4.84809C82.3251 6.52105 83.2118 8.70634 83.6738 11.8986C84.1379 15.1054 84.1653 19.2609 84.1667 24.8335L85.1667 24.8332C85.1653 19.2844 85.1401 15.0486 84.6635 11.7553C84.1847 8.44756 83.2424 6.02414 81.3592 4.14099L80.6521 4.84809ZM59.6668 1.33337C65.5735 1.33337 69.9532 1.33444 73.3161 1.78656C76.6646 2.23675 78.9299 3.12589 80.6521 4.84809L81.3592 4.14099C79.4203 2.20202 76.9087 1.26058 73.4493 0.795478C70.0044 0.332312 65.5452 0.333374 59.6668 0.333374V1.33337ZM26.3335 1.33337H59.6668V0.333374H26.3335V1.33337ZM5.34821 4.84809C7.07041 3.12589 9.33574 2.23675 12.6842 1.78656C16.0471 1.33444 20.4268 1.33337 26.3335 1.33337V0.333374C20.4551 0.333374 15.996 0.332312 12.551 0.795478C9.09161 1.26058 6.58007 2.20202 4.64111 4.14099L5.34821 4.84809ZM1.83358 24.8335C1.83505 19.2609 1.86238 15.1054 2.32652 11.8986C2.78855 8.70634 3.67526 6.52105 5.34821 4.84809L4.64111 4.14099C2.75795 6.02414 1.81558 8.44756 1.33683 11.7553C0.860191 15.0486 0.835043 19.2844 0.833582 24.8332L1.83358 24.8335ZM84.6668 26.3334H1.3335V27.3334H84.6668V26.3334ZM1.8335 38.3334V26.8334H0.833496V38.3334H1.8335ZM5.34821 59.3187C3.62602 57.5965 2.73687 55.3311 2.28668 51.9826C1.83456 48.6198 1.8335 44.2401 1.8335 38.3334H0.833496C0.833496 44.2118 0.832434 48.6709 1.2956 52.1159C1.7607 55.5753 2.70214 58.0868 4.64111 60.0258L5.34821 59.3187ZM26.3334 62.8334C20.4268 62.8334 16.0471 62.8323 12.6842 62.3802C9.33573 61.93 7.07041 61.0408 5.34822 59.3187L4.64111 60.0258C6.58007 61.9647 9.0916 62.9062 12.551 63.3713C15.9959 63.8344 20.455 63.8334 26.3334 63.8334V62.8334ZM26.3335 62.8334H26.3334V63.8334H26.3335V62.8334ZM59.6668 62.8334H26.3335V63.8334H59.6668V62.8334ZM59.6669 62.8334H59.6668V63.8334H59.6669V62.8334ZM80.6521 59.3187C78.9299 61.0408 76.6646 61.93 73.3161 62.3802C69.9533 62.8323 65.5736 62.8334 59.6669 62.8334V63.8334C65.5453 63.8334 70.0044 63.8344 73.4494 63.3713C76.9087 62.9062 79.4203 61.9647 81.3592 60.0258L80.6521 59.3187ZM84.1668 38.3334C84.1668 44.2401 84.1658 48.6198 83.7136 51.9826C83.2634 55.3311 82.3743 57.5965 80.6521 59.3187L81.3592 60.0258C83.2982 58.0868 84.2396 55.5753 84.7047 52.1159C85.1679 48.6709 85.1668 44.2118 85.1668 38.3334H84.1668ZM84.1668 26.8334V38.3334H85.1668V26.8334H84.1668ZM21.6668 46.6667C21.6668 46.3906 21.8907 46.1667 22.1668 46.1667V45.1667C21.3384 45.1667 20.6668 45.8383 20.6668 46.6667H21.6668ZM22.1668 47.1667C21.8907 47.1667 21.6668 46.9428 21.6668 46.6667H20.6668C20.6668 47.4951 21.3384 48.1667 22.1668 48.1667V47.1667ZM22.2085 47.1667H22.1668V48.1667H22.2085V47.1667ZM22.7085 46.6667C22.7085 46.9428 22.4846 47.1667 22.2085 47.1667V48.1667C23.0369 48.1667 23.7085 47.4951 23.7085 46.6667H22.7085ZM22.2085 46.1667C22.4846 46.1667 22.7085 46.3906 22.7085 46.6667H23.7085C23.7085 45.8383 23.0369 45.1667 22.2085 45.1667V46.1667ZM22.1668 46.1667H22.2085V45.1667H22.1668V46.1667Z" fill="black"/>
</svg>
