<svg width="86" height="86" viewBox="0 0 86 86" fill="none" xmlns="http://www.w3.org/2000/svg">
<path fill-rule="evenodd" clip-rule="evenodd" d="M51.0993 1.59192C51.385 1.85047 51.4278 2.27843 51.5134 3.13437L52.698 14.9811C52.8614 16.6147 52.9431 17.4314 53.4959 17.6604C54.0487 17.8894 54.684 17.3696 55.9546 16.33L65.1691 8.79087C65.8349 8.24616 66.1678 7.9738 66.5526 7.993C66.9374 8.01219 67.2416 8.31632 67.8498 8.92457L77.0752 18.15C77.6835 18.7582 77.9876 19.0624 78.0068 19.4472C78.026 19.832 77.7537 20.1649 77.2089 20.8307L69.6697 30.0454C68.6301 31.3159 68.1103 31.9512 68.3393 32.5041C68.5683 33.0569 69.385 33.1386 71.0186 33.3019L82.8656 34.4866C83.7215 34.5722 84.1495 34.615 84.408 34.9007C84.6666 35.1864 84.6666 35.6165 84.6666 36.4767V49.5234C84.6666 50.3836 84.6666 50.8137 84.408 51.0994C84.1495 51.3851 83.7215 51.4279 82.8656 51.5135L71.0201 52.698C69.3866 52.8614 68.5698 52.943 68.3409 53.4959C68.1119 54.0487 68.6317 54.684 69.6712 55.9546L77.2091 65.1676C77.7539 65.8333 78.0262 66.1662 78.007 66.551C77.9878 66.9359 77.6837 67.24 77.0754 67.8482L67.85 77.0737C67.2418 77.6819 66.9376 77.9861 66.5528 78.0052C66.168 78.0244 65.8351 77.7521 65.1693 77.2074L55.9548 69.6682C54.6842 68.6286 54.0489 68.1088 53.4961 68.3378C52.9432 68.5668 52.8616 69.3836 52.6982 71.0171L51.5134 82.8657C51.4278 83.7216 51.385 84.1496 51.0993 84.4082C50.8136 84.6667 50.3835 84.6667 49.5233 84.6667H36.4766C35.6164 84.6667 35.1863 84.6667 34.9006 84.4082C34.6149 84.1496 34.5721 83.7216 34.4865 82.8657L33.3018 71.0187C33.1384 69.3852 33.0568 68.5684 32.504 68.3394C31.9511 68.1104 31.3158 68.6302 30.0452 69.6698L20.8304 77.2093C20.1646 77.754 19.8317 78.0263 19.4469 78.0071C19.0621 77.9879 18.7579 77.6838 18.1497 77.0756L8.92426 67.8501C8.31601 67.2419 8.01188 66.9378 7.99269 66.5529C7.97349 66.1681 8.24585 65.8352 8.79056 65.1695L16.3299 55.9547C17.3695 54.6841 17.8893 54.0488 17.6603 53.496C17.4313 52.9432 16.6145 52.8615 14.981 52.6981L3.13424 51.5135C2.27831 51.4279 1.85035 51.3851 1.5918 51.0994C1.33325 50.8137 1.33325 50.3836 1.33325 49.5234L1.33325 36.4767C1.33325 35.6165 1.33325 35.1864 1.5918 34.9007C1.85035 34.615 2.27831 34.5722 3.13425 34.4866L14.9826 33.3018C16.6161 33.1384 17.4329 33.0567 17.6619 32.5039C17.8908 31.9511 17.371 31.3158 16.3315 30.0452L8.79076 20.8288C8.24604 20.163 7.97369 19.8302 7.99288 19.4453C8.01208 19.0605 8.3162 18.7564 8.92446 18.1481L18.1499 8.92268C18.7581 8.31443 19.0623 8.0103 19.4471 7.99111C19.8319 7.97191 20.1648 8.24427 20.8306 8.78898L30.0454 16.3284C31.316 17.368 31.9513 17.8878 32.5041 17.6588C33.057 17.4298 33.1386 16.613 33.302 14.9795L34.4865 3.13437C34.5721 2.27844 34.6149 1.85047 34.9006 1.59192C35.1863 1.33337 35.6164 1.33337 36.4766 1.33337H49.5233C50.3835 1.33337 50.8136 1.33337 51.0993 1.59192ZM42.9999 59.6667C52.2047 59.6667 59.6666 52.2048 59.6666 43C59.6666 33.7953 52.2047 26.3334 42.9999 26.3334C33.7952 26.3334 26.3333 33.7953 26.3333 43C26.3333 52.2048 33.7952 59.6667 42.9999 59.6667Z" fill="#AB9876"/>
<path d="M51.5134 3.13437L52.0109 3.08461L52.0109 3.08461L51.5134 3.13437ZM51.0993 1.59192L51.4348 1.2212L51.4348 1.2212L51.0993 1.59192ZM52.698 14.9811L53.1956 14.9314L53.1956 14.9314L52.698 14.9811ZM55.9546 16.33L55.638 15.9431L55.638 15.9431L55.9546 16.33ZM65.1691 8.79087L65.4858 9.17785L65.4858 9.17785L65.1691 8.79087ZM67.8498 8.92457L67.4963 9.27812L67.4963 9.27812L67.8498 8.92457ZM77.0752 18.15L76.7217 18.5035L76.7217 18.5035L77.0752 18.15ZM78.0068 19.4472L77.5074 19.4721L77.5074 19.4721L78.0068 19.4472ZM77.2089 20.8307L77.5959 21.1473L77.5959 21.1473L77.2089 20.8307ZM69.6697 30.0454L69.2827 29.7287L69.2827 29.7287L69.6697 30.0454ZM68.3393 32.5041L67.8773 32.6954L67.8773 32.6954L68.3393 32.5041ZM71.0186 33.3019L71.0683 32.8044L71.0683 32.8044L71.0186 33.3019ZM82.8656 34.4866L82.9153 33.9891L82.9153 33.9891L82.8656 34.4866ZM84.408 34.9007L84.7788 34.5652L84.7788 34.5652L84.408 34.9007ZM84.408 51.0994L84.7788 51.4349L84.7788 51.4349L84.408 51.0994ZM82.8656 51.5135L82.9153 52.011L82.9153 52.011L82.8656 51.5135ZM71.0201 52.698L71.0699 53.1955L71.0699 53.1955L71.0201 52.698ZM68.3409 53.4959L68.8028 53.6872L68.8028 53.6872L68.3409 53.4959ZM69.6712 55.9546L69.2843 56.2712L69.2843 56.2712L69.6712 55.9546ZM77.2091 65.1676L77.5961 64.8509L77.5961 64.8509L77.2091 65.1676ZM78.007 66.551L77.5076 66.5261L77.5076 66.5261L78.007 66.551ZM66.5528 78.0052L66.5279 77.5059L66.5279 77.5059L66.5528 78.0052ZM65.1693 77.2074L64.8527 77.5944L64.8527 77.5944L65.1693 77.2074ZM55.9548 69.6682L56.2714 69.2812L56.2714 69.2812L55.9548 69.6682ZM53.4961 68.3378L53.6874 68.7997L53.6874 68.7997L53.4961 68.3378ZM52.6982 71.0171L53.1957 71.0668L53.1957 71.0668L52.6982 71.0171ZM51.5134 82.8657L52.0109 82.9155L52.0109 82.9155L51.5134 82.8657ZM51.0993 84.4082L51.4348 84.7789L51.4348 84.7789L51.0993 84.4082ZM34.9006 84.4082L34.5651 84.7789L34.5651 84.7789L34.9006 84.4082ZM34.4865 82.8657L33.989 82.9155L33.989 82.9155L34.4865 82.8657ZM33.3018 71.0187L32.8043 71.0685L32.8043 71.0685L33.3018 71.0187ZM32.504 68.3394L32.3126 68.8014L32.3126 68.8014L32.504 68.3394ZM30.0452 69.6698L29.7286 69.2828L29.7286 69.2828L30.0452 69.6698ZM20.8304 77.2093L20.5138 76.8223L20.5138 76.8223L20.8304 77.2093ZM19.4469 78.0071L19.4718 77.5077L19.4718 77.5077L19.4469 78.0071ZM18.1497 77.0756L18.5032 76.722L18.5032 76.722L18.1497 77.0756ZM8.92426 67.8501L8.57071 68.2037L8.57071 68.2037L8.92426 67.8501ZM7.99269 66.5529L8.49207 66.528L8.49207 66.528L7.99269 66.5529ZM8.79056 65.1695L9.17754 65.4861L9.17754 65.4861L8.79056 65.1695ZM16.3299 55.9547L15.9429 55.6381L15.9429 55.6381L16.3299 55.9547ZM17.6603 53.496L18.1222 53.3046L18.1222 53.3046L17.6603 53.496ZM14.981 52.6981L14.9312 53.1957L14.9312 53.1957L14.981 52.6981ZM3.13424 51.5135L3.08449 52.011L3.08449 52.011L3.13424 51.5135ZM1.5918 51.0994L1.22107 51.4349L1.22107 51.4349L1.5918 51.0994ZM1.33325 49.5234L0.833252 49.5234V49.5234H1.33325ZM1.33325 36.4767L1.83325 36.4767V36.4767H1.33325ZM1.5918 34.9007L1.22107 34.5652L1.22107 34.5652L1.5918 34.9007ZM3.13425 34.4866L3.08449 33.9891L3.08449 33.9891L3.13425 34.4866ZM14.9826 33.3018L14.9328 32.8043L14.9328 32.8043L14.9826 33.3018ZM17.6619 32.5039L18.1238 32.6953L18.1238 32.6953L17.6619 32.5039ZM16.3315 30.0452L15.9445 30.3618L15.9445 30.3618L16.3315 30.0452ZM8.79076 20.8288L8.40378 21.1454L8.40378 21.1454L8.79076 20.8288ZM7.99288 19.4453L8.49226 19.4702L8.49226 19.4702L7.99288 19.4453ZM8.92446 18.1481L9.27801 18.5017L9.27801 18.5017L8.92446 18.1481ZM18.1499 8.92268L17.7963 8.56913L17.7963 8.56913L18.1499 8.92268ZM19.4471 7.99111L19.472 8.49049L19.472 8.49049L19.4471 7.99111ZM20.8306 8.78898L20.5139 9.17596L20.5139 9.17596L20.8306 8.78898ZM30.0454 16.3284L29.7288 16.7154L29.7288 16.7154L30.0454 16.3284ZM33.302 14.9795L32.8045 14.9298L32.8045 14.9298L33.302 14.9795ZM34.4865 3.13437L33.989 3.08462L33.989 3.08462L34.4865 3.13437ZM34.9006 1.59192L34.5651 1.2212L34.5651 1.2212L34.9006 1.59192ZM52.0109 3.08461C51.9694 2.66995 51.9345 2.31115 51.8684 2.02619C51.7991 1.72732 51.6824 1.44531 51.4348 1.2212L50.7638 1.96265C50.8018 1.99708 50.8494 2.05833 50.8943 2.25206C50.9424 2.4597 50.9717 2.74285 51.0158 3.18412L52.0109 3.08461ZM53.1956 14.9314L52.0109 3.08461L51.0158 3.18412L52.2005 15.0309L53.1956 14.9314ZM53.6872 17.1985C53.636 17.1773 53.5344 17.1173 53.4358 16.7255C53.337 16.333 53.2789 15.7651 53.1956 14.9314L52.2005 15.0309C52.2805 15.8308 52.3449 16.488 52.466 16.9695C52.5873 17.4517 52.803 17.9146 53.3045 18.1224L53.6872 17.1985ZM55.638 15.9431C54.9895 16.4736 54.5469 16.8341 54.1995 17.0418C53.8527 17.2492 53.7385 17.2197 53.6872 17.1985L53.3045 18.1224C53.8061 18.3301 54.286 18.1553 54.7127 17.9001C55.1388 17.6453 55.6491 17.2261 56.2712 16.717L55.638 15.9431ZM64.8525 8.40389L55.638 15.9431L56.2712 16.717L65.4858 9.17785L64.8525 8.40389ZM66.5775 7.49362C66.2439 7.47698 65.962 7.59386 65.7017 7.75619C65.4534 7.91097 65.1751 8.14 64.8525 8.40389L65.4858 9.17785C65.829 8.89703 66.0499 8.71752 66.2308 8.60474C66.3995 8.49952 66.4765 8.48982 66.5277 8.49238L66.5775 7.49362ZM68.2034 8.57102C67.9087 8.27634 67.6545 8.02075 67.4229 7.84204C67.18 7.65461 66.9111 7.51025 66.5775 7.49362L66.5277 8.49238C66.5789 8.49493 66.6545 8.51223 66.812 8.63373C66.9807 8.76395 67.1827 8.96455 67.4963 9.27812L68.2034 8.57102ZM77.4288 17.7964L68.2034 8.57102L67.4963 9.27812L76.7217 18.5035L77.4288 17.7964ZM78.5062 19.4223C78.4896 19.0887 78.3452 18.8198 78.1578 18.5769C77.9791 18.3453 77.7235 18.0911 77.4288 17.7964L76.7217 18.5035C77.0353 18.8171 77.2359 19.0191 77.3661 19.1878C77.4876 19.3453 77.5049 19.4209 77.5074 19.4721L78.5062 19.4223ZM77.5959 21.1473C77.8598 20.8248 78.0888 20.5464 78.2436 20.2982C78.406 20.0378 78.5228 19.7559 78.5062 19.4223L77.5074 19.4721C77.51 19.5234 77.5003 19.6003 77.3951 19.769C77.2823 19.9499 77.1028 20.1708 76.822 20.5141L77.5959 21.1473ZM70.0566 30.362L77.5959 21.1473L76.822 20.5141L69.2827 29.7287L70.0566 30.362ZM68.8012 32.3127C68.78 32.2615 68.7505 32.1473 68.9579 31.8005C69.1656 31.4531 69.5261 31.0104 70.0566 30.362L69.2827 29.7287C68.7737 30.3509 68.3544 30.8612 68.0996 31.2873C67.8445 31.714 67.6696 32.1938 67.8773 32.6954L68.8012 32.3127ZM71.0683 32.8044C70.2347 32.721 69.6668 32.6629 69.2742 32.5641C68.8824 32.4656 68.8225 32.364 68.8012 32.3127L67.8773 32.6954C68.0851 33.197 68.5481 33.4126 69.0302 33.5339C69.5117 33.655 70.169 33.7194 70.9688 33.7994L71.0683 32.8044ZM82.9153 33.9891L71.0683 32.8044L70.9688 33.7994L82.8158 34.9841L82.9153 33.9891ZM84.7788 34.5652C84.5546 34.3175 84.2726 34.2008 83.9738 34.1315C83.6888 34.0655 83.33 34.0306 82.9153 33.9891L82.8158 34.9841C83.2571 35.0283 83.5403 35.0575 83.7479 35.1057C83.9416 35.1506 84.0029 35.1982 84.0373 35.2362L84.7788 34.5652ZM85.1666 36.4767C85.1666 36.06 85.1676 35.6995 85.1302 35.4093C85.0909 35.1051 85.0029 34.8128 84.7788 34.5652L84.0373 35.2362C84.0717 35.2742 84.1129 35.3399 84.1384 35.5372C84.1656 35.7486 84.1666 36.0332 84.1666 36.4767H85.1666ZM85.1666 49.5234V36.4767H84.1666V49.5234H85.1666ZM84.7788 51.4349C85.0029 51.1872 85.0909 50.895 85.1302 50.5907C85.1676 50.3006 85.1666 49.9401 85.1666 49.5234H84.1666C84.1666 49.9669 84.1656 50.2515 84.1384 50.4629C84.1129 50.6602 84.0717 50.7258 84.0373 50.7639L84.7788 51.4349ZM82.9153 52.011C83.33 51.9695 83.6888 51.9346 83.9738 51.8685C84.2726 51.7992 84.5546 51.6825 84.7788 51.4349L84.0373 50.7639C84.0029 50.8019 83.9416 50.8495 83.7479 50.8944C83.5403 50.9425 83.2571 50.9718 82.8158 51.016L82.9153 52.011ZM71.0699 53.1955L82.9153 52.011L82.8158 51.016L70.9704 52.2005L71.0699 53.1955ZM68.8028 53.6872C68.824 53.6359 68.8839 53.5344 69.2758 53.4358C69.6683 53.337 70.2362 53.2789 71.0699 53.1955L70.9704 52.2005C70.1705 52.2805 69.5133 52.3449 69.0318 52.466C68.5496 52.5873 68.0867 52.803 67.8789 53.3045L68.8028 53.6872ZM70.0582 55.6379C69.5277 54.9895 69.1672 54.5468 68.9595 54.1994C68.7521 53.8527 68.7816 53.7385 68.8028 53.6872L67.8789 53.3045C67.6712 53.8061 67.846 54.2859 68.1012 54.7127C68.356 55.1388 68.7752 55.649 69.2843 56.2712L70.0582 55.6379ZM77.5961 64.8509L70.0582 55.6379L69.2843 56.2712L76.8222 65.4842L77.5961 64.8509ZM78.5064 66.5759C78.523 66.2423 78.4062 65.9604 78.2438 65.7001C78.089 65.4519 77.86 65.1735 77.5961 64.8509L76.8222 65.4842C77.103 65.8274 77.2825 66.0483 77.3953 66.2292C77.5005 66.3979 77.5102 66.4749 77.5076 66.5261L78.5064 66.5759ZM77.429 68.2018C77.7237 67.9071 77.9793 67.6529 78.158 67.4213C78.3454 67.1784 78.4898 66.9095 78.5064 66.5759L77.5076 66.5261C77.5051 66.5774 77.4878 66.6529 77.3663 66.8104C77.2361 66.9791 77.0355 67.1811 76.7219 67.4947L77.429 68.2018ZM68.2036 77.4272L77.429 68.2018L76.7219 67.4947L67.4965 76.7201L68.2036 77.4272ZM66.5777 78.5046C66.9113 78.488 67.1802 78.3436 67.4231 78.1562C67.6547 77.9775 67.9089 77.7219 68.2036 77.4272L67.4965 76.7201C67.1829 77.0337 66.9809 77.2343 66.8122 77.3645C66.6547 77.486 66.5791 77.5033 66.5279 77.5059L66.5777 78.5046ZM64.8527 77.5944C65.1752 77.8582 65.4536 78.0873 65.7019 78.2421C65.9622 78.4044 66.2441 78.5213 66.5777 78.5046L66.5279 77.5059C66.4766 77.5084 66.3997 77.4987 66.231 77.3935C66.0501 77.2807 65.8292 77.1012 65.4859 76.8204L64.8527 77.5944ZM55.6381 70.0552L64.8527 77.5944L65.4859 76.8204L56.2714 69.2812L55.6381 70.0552ZM53.6874 68.7997C53.7387 68.7785 53.8529 68.749 54.1996 68.9564C54.547 69.1642 54.9897 69.5246 55.6381 70.0552L56.2714 69.2812C55.6492 68.7722 55.139 68.353 54.7129 68.0982C54.2861 67.843 53.8063 67.6681 53.3047 67.8759L53.6874 68.7997ZM53.1957 71.0668C53.2791 70.2332 53.3372 69.6653 53.436 69.2727C53.5346 68.8809 53.6361 68.821 53.6874 68.7997L53.3047 67.8759C52.8032 68.0836 52.5875 68.5466 52.4662 69.0288C52.3451 69.5102 52.2807 70.1675 52.2007 70.9673L53.1957 71.0668ZM52.0109 82.9155L53.1957 71.0668L52.2007 70.9673L51.0158 82.816L52.0109 82.9155ZM51.4348 84.7789C51.6824 84.5548 51.7991 84.2728 51.8684 83.9739C51.9345 83.6889 51.9694 83.3301 52.0109 82.9155L51.0158 82.816C50.9717 83.2572 50.9424 83.5404 50.8943 83.748C50.8494 83.9418 50.8018 84.003 50.7638 84.0374L51.4348 84.7789ZM49.5233 85.1667C49.94 85.1667 50.3005 85.1677 50.5906 85.1303C50.8949 85.0911 51.1871 85.003 51.4348 84.7789L50.7638 84.0374C50.7257 84.0719 50.6601 84.1131 50.4628 84.1385C50.2514 84.1657 49.9668 84.1667 49.5233 84.1667V85.1667ZM36.4766 85.1667H49.5233V84.1667H36.4766V85.1667ZM34.5651 84.7789C34.8127 85.003 35.1049 85.0911 35.4092 85.1303C35.6993 85.1677 36.0598 85.1667 36.4766 85.1667V84.1667C36.0331 84.1667 35.7484 84.1657 35.537 84.1385C35.3398 84.1131 35.2741 84.0719 35.2361 84.0374L34.5651 84.7789ZM33.989 82.9155C34.0304 83.3301 34.0653 83.6889 34.1314 83.9739C34.2007 84.2728 34.3174 84.5548 34.5651 84.7789L35.2361 84.0374C35.198 84.003 35.1505 83.9418 35.1056 83.748C35.0574 83.5404 35.0281 83.2572 34.984 82.816L33.989 82.9155ZM32.8043 71.0685L33.989 82.9155L34.984 82.816L33.7993 70.969L32.8043 71.0685ZM32.3126 68.8014C32.3639 68.8226 32.4655 68.8825 32.564 69.2744C32.6628 69.6669 32.7209 70.2348 32.8043 71.0685L33.7993 70.969C33.7193 70.1691 33.6549 69.5118 33.5338 69.0304C33.4125 68.5482 33.1968 68.0852 32.6953 67.8775L32.3126 68.8014ZM30.3619 70.0568C31.0103 69.5262 31.453 69.1658 31.8004 68.958C32.1472 68.7507 32.2613 68.7801 32.3126 68.8014L32.6953 67.8775C32.1937 67.6697 31.7139 67.8446 31.2872 68.0998C30.8611 68.3546 30.3508 68.7738 29.7286 69.2828L30.3619 70.0568ZM21.147 77.5962L30.3619 70.0568L29.7286 69.2828L20.5138 76.8223L21.147 77.5962ZM19.422 78.5065C19.7556 78.5231 20.0375 78.4063 20.2978 78.2439C20.5461 78.0892 20.8245 77.8601 21.147 77.5962L20.5138 76.8223C20.1705 77.1031 19.9496 77.2826 19.7687 77.3954C19.6 77.5006 19.5231 77.5103 19.4718 77.5077L19.422 78.5065ZM17.7961 77.4291C18.0908 77.7238 18.345 77.9794 18.5766 78.1581C18.8195 78.3455 19.0884 78.4899 19.422 78.5065L19.4718 77.5077C19.4206 77.5052 19.345 77.4879 19.1875 77.3664C19.0188 77.2362 18.8168 77.0356 18.5032 76.722L17.7961 77.4291ZM8.57071 68.2037L17.7961 77.4291L18.5032 76.722L9.27781 67.4966L8.57071 68.2037ZM7.49331 66.5778C7.50994 66.9114 7.6543 67.1803 7.84173 67.4232C8.02044 67.6548 8.27603 67.909 8.57071 68.2037L9.27781 67.4966C8.96423 67.183 8.76364 66.981 8.63342 66.8123C8.51192 66.6548 8.49462 66.5793 8.49207 66.528L7.49331 66.5778ZM8.40358 64.8528C8.13969 65.1754 7.91066 65.4538 7.75588 65.702C7.59355 65.9623 7.47667 66.2442 7.49331 66.5778L8.49207 66.528C8.48951 66.4768 8.49921 66.3998 8.60443 66.2311C8.71721 66.0502 8.89672 65.8293 9.17754 65.4861L8.40358 64.8528ZM15.9429 55.6381L8.40358 64.8528L9.17754 65.4861L16.7169 56.2713L15.9429 55.6381ZM17.1983 53.6873C17.2196 53.7386 17.249 53.8528 17.0417 54.1996C16.8339 54.547 16.4735 54.9896 15.9429 55.6381L16.7169 56.2713C17.2259 55.6492 17.6451 55.1389 17.8999 54.7128C18.1551 54.2861 18.33 53.8062 18.1222 53.3046L17.1983 53.6873ZM14.9312 53.1957C15.7649 53.279 16.3328 53.3372 16.7254 53.4359C17.1172 53.5345 17.1771 53.6361 17.1983 53.6873L18.1222 53.3046C17.9145 52.8031 17.4515 52.5874 16.9693 52.4661C16.4879 52.345 15.8306 52.2806 15.0307 52.2006L14.9312 53.1957ZM3.08449 52.011L14.9312 53.1957L15.0307 52.2006L3.184 51.016L3.08449 52.011ZM1.22107 51.4349C1.44519 51.6825 1.7272 51.7992 2.02606 51.8685C2.31103 51.9346 2.66983 51.9695 3.08449 52.011L3.184 51.016C2.74273 50.9718 2.45958 50.9425 2.25194 50.8944C2.05821 50.8495 1.99696 50.8019 1.96252 50.7639L1.22107 51.4349ZM0.833252 49.5234C0.833252 49.9401 0.832281 50.3006 0.869672 50.5907C0.908888 50.895 0.996956 51.1872 1.22107 51.4349L1.96252 50.7639C1.9281 50.7258 1.88689 50.6602 1.86147 50.4629C1.83422 50.2515 1.83325 49.9669 1.83325 49.5234H0.833252ZM0.833253 36.4767L0.833252 49.5234L1.83325 49.5234L1.83325 36.4767L0.833253 36.4767ZM1.22107 34.5652C0.996957 34.8128 0.908889 35.105 0.869673 35.4093C0.832282 35.6995 0.833253 36.0599 0.833253 36.4767H1.83325C1.83325 36.0332 1.83422 35.7486 1.86147 35.5372C1.88689 35.3399 1.9281 35.2742 1.96253 35.2362L1.22107 34.5652ZM3.08449 33.9891C2.66983 34.0306 2.31103 34.0655 2.02607 34.1315C1.7272 34.2008 1.44519 34.3175 1.22107 34.5652L1.96253 35.2362C1.99696 35.1981 2.05821 35.1506 2.25194 35.1057C2.45958 35.0575 2.74273 35.0283 3.184 34.9841L3.08449 33.9891ZM14.9328 32.8043L3.08449 33.9891L3.184 34.9841L15.0323 33.7993L14.9328 32.8043ZM17.1999 32.3126C17.1787 32.3638 17.1188 32.4654 16.7269 32.564C16.3344 32.6628 15.7665 32.7209 14.9328 32.8043L15.0323 33.7993C15.8322 33.7193 16.4894 33.6549 16.9709 33.5338C17.4531 33.4125 17.916 33.1968 18.1238 32.6953L17.1999 32.3126ZM15.9445 30.3618C16.475 31.0103 16.8355 31.453 17.0432 31.8004C17.2506 32.1471 17.2211 32.2613 17.1999 32.3126L18.1238 32.6953C18.3315 32.1937 18.1567 31.7139 17.9015 31.2871C17.6467 30.861 17.2275 30.3508 16.7184 29.7286L15.9445 30.3618ZM8.40378 21.1454L15.9445 30.3618L16.7185 29.7286L9.17773 20.5122L8.40378 21.1454ZM7.4935 19.4204C7.47686 19.754 7.59375 20.0359 7.75608 20.2963C7.91086 20.5445 8.13989 20.8229 8.40378 21.1454L9.17773 20.5122C8.89691 20.1689 8.71741 19.948 8.60463 19.7672C8.4994 19.5984 8.4897 19.5215 8.49226 19.4702L7.4935 19.4204ZM8.5709 17.7945C8.27623 18.0892 8.02063 18.3434 7.84193 18.575C7.6545 18.8179 7.51014 19.0868 7.4935 19.4204L8.49226 19.4702C8.49482 19.419 8.51212 19.3434 8.63362 19.186C8.76383 19.0172 8.96443 18.8152 9.27801 18.5017L8.5709 17.7945ZM17.7963 8.56913L8.5709 17.7945L9.27801 18.5017L18.5034 9.27623L17.7963 8.56913ZM19.4222 7.49173C19.0886 7.50836 18.8197 7.65272 18.5768 7.84015C18.3452 8.01886 18.091 8.27445 17.7963 8.56913L18.5034 9.27623C18.817 8.96265 19.019 8.76206 19.1877 8.63184C19.3452 8.51034 19.4208 8.49304 19.472 8.49049L19.4222 7.49173ZM21.1472 8.402C20.8247 8.13811 20.5463 7.90908 20.298 7.7543C20.0377 7.59197 19.7558 7.47509 19.4222 7.49173L19.472 8.49049C19.5232 8.48793 19.6002 8.49763 19.7689 8.60285C19.9498 8.71563 20.1707 8.89514 20.5139 9.17596L21.1472 8.402ZM30.362 15.9414L21.1472 8.402L20.5139 9.17596L29.7288 16.7154L30.362 15.9414ZM32.3128 17.1969C32.2615 17.2181 32.1473 17.2476 31.8006 17.0402C31.4532 16.8324 31.0105 16.472 30.362 15.9414L29.7288 16.7154C30.351 17.2244 30.8612 17.6436 31.2873 17.8984C31.7141 18.1536 32.1939 18.3285 32.6955 18.1207L32.3128 17.1969ZM32.8045 14.9298C32.7211 15.7634 32.663 16.3313 32.5642 16.7239C32.4656 17.1157 32.3641 17.1756 32.3128 17.1969L32.6955 18.1207C33.197 17.913 33.4127 17.45 33.534 16.9678C33.6551 16.4864 33.7195 15.8291 33.7995 15.0293L32.8045 14.9298ZM33.989 3.08462L32.8045 14.9298L33.7995 15.0293L34.984 3.18412L33.989 3.08462ZM34.5651 1.2212C34.3174 1.44531 34.2007 1.72732 34.1314 2.02619C34.0653 2.31115 34.0304 2.66995 33.989 3.08462L34.984 3.18412C35.0281 2.74285 35.0574 2.4597 35.1056 2.25206C35.1505 2.05833 35.198 1.99708 35.2361 1.96265L34.5651 1.2212ZM36.4766 0.833374C36.0598 0.833374 35.6993 0.832403 35.4092 0.869794C35.1049 0.90901 34.8127 0.997078 34.5651 1.2212L35.2361 1.96265C35.2741 1.92822 35.3398 1.88701 35.537 1.86159C35.7484 1.83435 36.0331 1.83337 36.4766 1.83337V0.833374ZM49.5233 0.833374H36.4766V1.83337H49.5233V0.833374ZM51.4348 1.2212C51.1871 0.997078 50.8949 0.90901 50.5906 0.869794C50.3005 0.832403 49.94 0.833374 49.5233 0.833374V1.83337C49.9668 1.83337 50.2514 1.83435 50.4628 1.86159C50.6601 1.88701 50.7257 1.92822 50.7638 1.96265L51.4348 1.2212ZM59.1666 43C59.1666 51.9286 51.9285 59.1667 42.9999 59.1667V60.1667C52.4808 60.1667 60.1666 52.4809 60.1666 43H59.1666ZM42.9999 26.8334C51.9285 26.8334 59.1666 34.0714 59.1666 43H60.1666C60.1666 33.5192 52.4808 25.8334 42.9999 25.8334V26.8334ZM26.8333 43C26.8333 34.0714 34.0713 26.8334 42.9999 26.8334V25.8334C33.519 25.8334 25.8333 33.5192 25.8333 43H26.8333ZM42.9999 59.1667C34.0713 59.1667 26.8333 51.9286 26.8333 43H25.8333C25.8333 52.4809 33.519 60.1667 42.9999 60.1667V59.1667Z" fill="black"/>
</svg>
