<svg width="24" height="24" viewBox="0 0 24 24" fill="none" xmlns="http://www.w3.org/2000/svg">
<path fill-rule="evenodd" clip-rule="evenodd" d="M4.75076 3.51857C2.85574 5.4888 2.66209 8.54949 4.30877 10.7451L5.78572 12.7143C7.34921 14.799 9.20106 16.6508 11.2857 18.2143L13.255 19.6913C15.4506 21.338 18.5112 21.1443 20.4815 19.2493L17.25 16.0178L15.9736 17.2943C15.3903 17.8776 14.4991 18.0222 13.7613 17.6532C10.5528 16.049 7.95108 13.4473 6.3468 10.2387C5.97789 9.5009 6.1225 8.60979 6.7058 8.02648L7.98224 6.75005L4.75076 3.51857ZM3.06016 1.67212C3.99344 0.73885 5.50657 0.738848 6.43985 1.67212L9.75 4.98228C10.7263 5.95859 10.7263 7.5415 9.75001 8.51781L8.77559 9.49223C10.0829 11.9235 12.0765 13.9171 14.5078 15.2245L15.4822 14.25C16.4585 13.2737 18.0415 13.2737 19.0178 14.25L22.3279 17.5602C23.2612 18.4935 23.2612 20.0066 22.3279 20.9399C19.4815 23.7863 14.9753 24.1065 11.755 21.6913L9.78572 20.2143C7.51155 18.5087 5.49135 16.4885 3.78572 14.2143L2.30877 12.2451C-0.106474 9.02474 0.213772 4.51851 3.06016 1.67212Z" fill="white"/>
</svg>
